<?xml version="1.0" encoding="utf-8"?><svg viewBox="0 0 24 24" xmlns="http://www.w3.org/2000/svg" xmlns:xlink="http://www.w3.org/1999/xlink"><style>:root>svg{display:none}:root>svg:target{display:block}</style><svg fill="none" viewBox="0 0 24 24" id="calendar" xmlns="http://www.w3.org/2000/svg"><path fill-rule="evenodd" clip-rule="evenodd" d="M8 4a1 1 0 0 0-1 1v1H6a2 2 0 0 0-2 2v10a2 2 0 0 0 2 2h12a2 2 0 0 0 2-2V8a2 2 0 0 0-2-2h-1V5a1 1 0 0 0-2 0v1H9V5a1 1 0 0 0-1-1Zm0 5a1 1 0 0 0 0 2h8a1 1 0 0 0 0-2H8Z" fill="#B0BABF"/></svg><svg fill="none" viewBox="0 0 24 24" id="close" xmlns="http://www.w3.org/2000/svg"><path fill-rule="evenodd" clip-rule="evenodd" d="M6.293 6.293a1 1 0 0 1 1.414 0L12 10.586l4.293-4.293a1 1 0 1 1 1.414 1.414L13.414 12l4.293 4.293a1 1 0 0 1-1.414 1.414L12 13.414l-4.293 4.293a1 1 0 0 1-1.414-1.414L10.586 12 6.293 7.707a1 1 0 0 1 0-1.414Z" fill="#B0BABF"/></svg><svg fill="none" viewBox="0 0 16 16" id="logout" xmlns="http://www.w3.org/2000/svg"><path d="M10.508 9.993c0-.042.016-.084.045-.115l.858-.858.853-.853H6a.167.167 0 1 1 0-.334h6.264l-.853-.853-.862-.862-.006-.006a.166.166 0 0 1 .052-.274.167.167 0 0 1 .183.038l.006.006 2 2a.167.167 0 0 1 0 .236l-1.995 1.996a.167.167 0 0 1-.28-.12Zm-7.293-6.11A.167.167 0 0 1 3.5 4v8a.167.167 0 0 1-.333 0V4c0-.044.017-.087.048-.118Z" fill="#252C32" stroke="#0E73F6"/></svg><svg fill="none" viewBox="0 0 24 24" id="plus" xmlns="http://www.w3.org/2000/svg"><path fill-rule="evenodd" clip-rule="evenodd" d="M12 7a1 1 0 0 1 1 1v3h3a1 1 0 0 1 0 2h-3v3a1 1 0 0 1-2 0v-3H8a1 1 0 0 1 0-2h3V8a1 1 0 0 1 1-1Z" fill="#fff"/></svg><svg fill="none" viewBox="0 0 16 16" id="reset" xmlns="http://www.w3.org/2000/svg"><path fill-rule="evenodd" clip-rule="evenodd" d="m8 9.414-3.293 3.293-1.414-1.414L6.586 8 3.293 4.707l1.414-1.414L8 6.586l3.293-3.293 1.414 1.414L9.414 8l3.293 3.293-1.414 1.414L8 9.414Z" fill="#4094F7"/></svg><svg fill="none" viewBox="0 0 24 24" id="search" xmlns="http://www.w3.org/2000/svg"><path fill-rule="evenodd" clip-rule="evenodd" d="M10 6a4 4 0 1 0 0 8 4 4 0 0 0 0-8Zm-6 4a6 6 0 1 1 10.89 3.477l4.817 4.817a1 1 0 0 1-1.414 1.414l-4.816-4.816A6.001 6.001 0 0 1 4 10Z" fill="#B0BABF"/></svg></svg>